<svg width="20" height="20" viewBox="0 0 20 20" fill="none" xmlns="http://www.w3.org/2000/svg">
<path d="M17.4166 1.6665H2.58329C2.34018 1.6665 2.10702 1.76308 1.93511 1.93499C1.7632 2.1069 1.66663 2.34006 1.66663 2.58317V17.4165C1.66663 17.5369 1.69034 17.6561 1.7364 17.7673C1.78247 17.8785 1.84999 17.9796 1.93511 18.0647C2.02023 18.1498 2.12128 18.2173 2.2325 18.2634C2.34371 18.3095 2.46291 18.3332 2.58329 18.3332H10.5666V11.8748H8.39996V9.37484H10.5666V7.49984C10.5217 7.05964 10.5737 6.61494 10.7189 6.19695C10.8641 5.77896 11.0989 5.39779 11.407 5.08018C11.7151 4.76257 12.0889 4.5162 12.5023 4.35837C12.9157 4.20053 13.3586 4.13505 13.8 4.1665C14.4486 4.16251 15.0969 4.1959 15.7416 4.2665V6.5165H14.4166C13.3666 6.5165 13.1666 7.0165 13.1666 7.7415V9.34984H15.6666L15.3416 11.8498H13.1666V18.3332H17.4166C17.537 18.3332 17.6562 18.3095 17.7674 18.2634C17.8786 18.2173 17.9797 18.1498 18.0648 18.0647C18.1499 17.9796 18.2174 17.8785 18.2635 17.7673C18.3096 17.6561 18.3333 17.5369 18.3333 17.4165V2.58317C18.3333 2.46279 18.3096 2.34359 18.2635 2.23238C18.2174 2.12116 18.1499 2.02011 18.0648 1.93499C17.9797 1.84987 17.8786 1.78235 17.7674 1.73628C17.6562 1.69021 17.537 1.6665 17.4166 1.6665V1.6665Z" fill="white"/>
</svg>
