<svg width="20" height="20" viewBox="0 0 20 20" fill="none" xmlns="http://www.w3.org/2000/svg">
<path d="M15.8333 3.3335H4.16663C3.50358 3.3335 2.8677 3.59689 2.39886 4.06573C1.93002 4.53457 1.66663 5.17045 1.66663 5.8335V14.1668C1.66663 14.8299 1.93002 15.4658 2.39886 15.9346C2.8677 16.4034 3.50358 16.6668 4.16663 16.6668H15.8333C16.4963 16.6668 17.1322 16.4034 17.6011 15.9346C18.0699 15.4658 18.3333 14.8299 18.3333 14.1668V5.8335C18.3333 5.17045 18.0699 4.53457 17.6011 4.06573C17.1322 3.59689 16.4963 3.3335 15.8333 3.3335V3.3335ZM15.4916 5.00016L10.5916 9.90016C10.5142 9.97827 10.422 10.0403 10.3204 10.0826C10.2189 10.1249 10.11 10.1467 9.99996 10.1467C9.88995 10.1467 9.78103 10.1249 9.67948 10.0826C9.57793 10.0403 9.48576 9.97827 9.40829 9.90016L4.50829 5.00016H15.4916ZM16.6666 14.1668C16.6666 14.3878 16.5788 14.5998 16.4225 14.7561C16.2663 14.9124 16.0543 15.0002 15.8333 15.0002H4.16663C3.94561 15.0002 3.73365 14.9124 3.57737 14.7561C3.42109 14.5998 3.33329 14.3878 3.33329 14.1668V6.17516L8.23329 11.0752C8.70204 11.5433 9.33746 11.8063 9.99996 11.8063C10.6625 11.8063 11.2979 11.5433 11.7666 11.0752L16.6666 6.17516V14.1668Z" fill="white"/>
</svg>
